<svg xmlns="http://www.w3.org/2000/svg" width="48" height="48" fill="none" viewBox="0 0 48 48"><defs/><linearGradient id="a" x1="43.5" x2="7.8" y1="10.9" y2="40.9" gradientUnits="userSpaceOnUse"><stop offset="0" stop-color="#b6509e"/><stop offset="1" stop-color="#2ebac6"/></linearGradient><path fill="url(#a)" d="M24 48a24 24 0 100-48 24 24 0 000 48z"/><path fill="#fff" d="M34.5 33.6l-8.1-19.7c-.5-1-1.2-1.5-2-1.5h-.8c-.9 0-1.5.5-2 1.5l-3.5 8.6h-2.7a1.5 1.5 0 00-1.5 1.4 1.5 1.5 0 001.5 1.5h1.4l-3.3 8.2-.1.5c0 .4 0 .8.4 1.1a1.4 1.4 0 001 .4c.3 0 .6 0 .9-.2l.6-.8 3.7-9.2h2.5A1.5 1.5 0 0024 24a1.5 1.5 0 00-1.5-1.5h-1.3l2.8-7 7.7 19.1c.1.3.3.6.6.7.2.2.5.3.8.3a1.4 1.4 0 001.1-.4c.3-.3.4-.7.4-1l-.1-.6z"/></svg>