<svg xmlns="http://www.w3.org/2000/svg" width="48" height="48" fill="none" viewBox="0 0 48 48">
  <path fill="#F7931A" d="M24 48c13.255 0 24-10.745 24-24S37.255 0 24 0 0 10.745 0 24s10.745 24 24 24z"/>
  <path fill="#fff" d="M34.784 21.03c.47-3.144-1.925-4.835-5.198-5.963l1.062-4.26-2.592-.645-1.035 4.148c-.68-.171-1.38-.33-2.077-.489l1.042-4.175L23.394 9l-1.062 4.258a69.026 69.026 0 01-1.656-.39l.003-.013-3.576-.893-.69 2.77s1.925.44 1.884.468c1.05.262 1.24.957 1.208 1.509l-1.21 4.852c.073.018.166.045.27.085l-.274-.067-1.695 6.798c-.129.318-.454.797-1.19.615.028.037-1.883-.47-1.883-.47l-1.287 2.968 3.375.841c.627.157 1.242.322 1.846.477l-1.072 4.308 2.59.645 1.062-4.26c.708.19 1.395.367 2.067.535l-1.059 4.242 2.592.645 1.073-4.299c4.422.837 7.746.5 9.145-3.499 1.128-3.219-.055-5.078-2.382-6.288 1.695-.39 2.97-1.505 3.31-3.807zm-5.925 8.307c-.8 3.22-6.222 1.479-7.98 1.043l1.425-5.708c1.758.44 7.393 1.308 6.555 4.665zm.802-8.354c-.73 2.93-5.242 1.44-6.705 1.076l1.29-5.175c1.463.364 6.177 1.044 5.415 4.1z"/>
</svg>
