<svg xmlns="http://www.w3.org/2000/svg" width="48" height="48" fill="none"><path fill="#070A0E" d="M24 48a24 24 0 100-48 24 24 0 000 48z"/><path fill="#00D395" fill-rule="evenodd" d="M13.86 32.05a2.42 2.42 0 01-1.15-2.06v-4.7a1 1 0 011.51-.86L24.8 30.6a2.02 2.02 0 011 1.74v4.86a1.2 1.2 0 01-1.83 1.03l-10.1-6.18zm15.78-8.9a2.02 2.02 0 011 1.74v9.85a.8.8 0 01-.41.7l-2.32 1.3a.48.48 0 01-.1.05V31.3a2.02 2.02 0 00-.97-1.73l-9.3-5.56v-6.18a1 1 0 011.52-.86l10.58 6.16zm4.63-7.29a2.01 2.01 0 011 1.75V32a.8.8 0 01-.42.7l-2.2 1.19V23.88a2.02 2.02 0 00-.97-1.73l-9.5-5.7v-5.86c0-.18.04-.35.13-.5a1.01 1.01 0 011.38-.37l10.58 6.14z" clip-rule="evenodd"/></svg>