<svg xmlns="http://www.w3.org/2000/svg" width="48" height="48" fill="none" viewBox="0 0 48 48"><defs/><path fill="#f4b731" fill-rule="evenodd" d="M5.75 4H22.3C32.37 4 40 9.4 42.84 17.24H48V22h-4.07c.08.75.12 1.51.12 2.29v.11c0 .88-.05 1.74-.15 2.58H48v4.74h-5.25c-2.92 7.74-10.5 13.08-20.45 13.08H5.75V31.71H0v-4.74h5.75v-4.98H0v-4.75h5.75zm4.63 27.71v8.83H22.3c7.36 0 12.83-3.54 15.38-8.83zm28.71-4.74H10.38v-4.98H39.1c.1.78.16 1.58.16 2.4v.12c0 .84-.06 1.66-.17 2.46zM22.3 8.25c7.4 0 12.88 3.63 15.41 9H10.38v-9z" clip-rule="evenodd"/></svg>