<svg fill="none" height="48" width="48" xmlns="http://www.w3.org/2000/svg">
  <clipPath id="a">
    <path d="M0 0h48v48H0z"/>
  </clipPath>
  <g clip-path="url(#a)">
    <path d="M9.002 24.026l14.912-7.958 14.72 7.9-14.708 7.964z" fill="#01c853"/>
    <path d="M23.914 16.068l14.72 7.9-14.708 7.964z" fill="#009f42"/>
    <path d="M23.914 25.246l14.72-1.278-14.708 7.964z" fill="#007831"/>
    <path d="M23.914 25.246l-14.912-1.22L23.9 31.931z" fill="#009f42"/>
    <path d="M9 26.142c5.223 2.77 10.666 5.674 14.88 7.92l14.759-7.918A6132.66 6132.66 0 0123.88 48C18.91 40.705 13.418 32.652 9 26.142z" fill="#01c853"/>
    <path d="M23.88 34.062l14.759-7.918A6128.298 6128.298 0 0123.88 48z" fill="#009f42"/>
    <path d="M23.877 13.855L9.002 21.688 23.812 0l14.821 21.735z" fill="#01c853"/>
    <path d="M23.877 13.855L23.813 0l14.82 21.735z" fill="#009f42"/>
  </g>
</svg>
