<svg xmlns="http://www.w3.org/2000/svg" width="48" height="48" fill="none" viewBox="0 0 48 48">
  <path fill="#001D57" d="M24 48c13.255 0 24-10.745 24-24S37.255 0 24 0 0 10.745 0 24s10.745 24 24 24z"/>
  <path fill="#fff" d="M30.748 7.932l1.805 1.806-3.415 3.51a6.764 6.764 0 011.106 3.719 6.672 6.672 0 01-1.886 4.696 6.275 6.275 0 01-3.326 1.84v3.058a6.4 6.4 0 013.32 1.83 6.677 6.677 0 011.892 4.704 6.676 6.676 0 01-1.892 4.702 6.392 6.392 0 01-4.605 1.953 6.36 6.36 0 01-4.605-1.953 6.711 6.711 0 01-1.892-4.702c0-1.77.672-3.449 1.887-4.698a6.274 6.274 0 013.325-1.838V23.5a6.412 6.412 0 01-3.319-1.83 6.711 6.711 0 01-1.893-4.704 6.71 6.71 0 011.893-4.702 6.392 6.392 0 014.605-1.955c1.29 0 2.53.393 3.592 1.124l3.41-3.5h-.002zm-7 21.086a3.794 3.794 0 00-2.786 1.185 4.126 4.126 0 00-1.162 2.892c0 1.087.412 2.103 1.162 2.89a3.87 3.87 0 002.786 1.185 3.795 3.795 0 002.784-1.185 4.126 4.126 0 001.163-2.89 4.166 4.166 0 00-1.168-2.897 3.789 3.789 0 00-2.779-1.18zm2.78-9.135a4.131 4.131 0 001.167-2.897 4.05 4.05 0 00-1.163-2.892 3.867 3.867 0 00-2.784-1.185 3.794 3.794 0 00-2.786 1.185 4.126 4.126 0 00-1.162 2.892c0 1.088.412 2.103 1.162 2.89a3.87 3.87 0 002.786 1.186c1.066 0 2.05-.414 2.78-1.18z"/>
</svg>
