<svg xmlns="http://www.w3.org/2000/svg" width="48" height="48" fill="none" viewBox="0 0 48 48">
  <g clip-path="url(#clip0)">
    <path fill="#345D9D" d="M24.376 24.782l-2.478 8.426h13.32a.686.686 0 01.66.874l-1.14 4.02a.93.93 0 01-.88.664H13.46l3.448-11.657-3.817 1.18.818-2.77 3.82-1.183L22.57 7.967a.93.93 0 01.88-.662h5.164a.688.688 0 01.66.876L25.197 22.02l3.817-1.183-.824 2.769-3.814 1.177zm-.409 23.206h.069A24.002 24.002 0 0024.014 0h-.028A23.998 23.998 0 000 23.992a23.998 23.998 0 0023.964 23.992l.004.004z"/>
  </g>
  <defs>
    <clipPath id="clip0">
      <path fill="#fff" d="M0 0h48v48H0z"/>
    </clipPath>
  </defs>
</svg>
