<svg xmlns="http://www.w3.org/2000/svg" width="48" height="48" fill="none" viewBox="0 0 48 48">
  <path fill="#1A53F0" d="M24 48c13.255 0 24-10.745 24-24S37.255 0 24 0 0 10.745 0 24s10.745 24 24 24z"/>
  <path fill="#fff" d="M17.784 25.935a6.53 6.53 0 00-6.525 6.533A6.53 6.53 0 0017.782 39a6.53 6.53 0 006.033-9.032 6.53 6.53 0 00-6.031-4.033zm0 11.09a4.553 4.553 0 01-4.204-6.297 4.551 4.551 0 018.755 1.742 4.56 4.56 0 01-4.551 4.555zM31.725 12a6.53 6.53 0 00-6.527 6.532 6.53 6.53 0 009.024 6.035 6.531 6.531 0 003.533-8.534A6.532 6.532 0 0031.723 12h.002zm0 11.09a4.552 4.552 0 01-4.206-6.297 4.552 4.552 0 015.948-2.465 4.551 4.551 0 011.474 7.424 4.56 4.56 0 01-3.216 1.338zM17.784 12a6.537 6.537 0 00-2.544 12.555 6.526 6.526 0 007.932-2.334 6.54 6.54 0 00-.713-8.245h1.85V12h-6.525zm4.551 6.532a4.553 4.553 0 01-4.551 4.555 4.553 4.553 0 01-3.218-7.774 4.553 4.553 0 013.218-1.335 4.56 4.56 0 014.553 4.554h-.002z"/>
</svg>
