<svg height="48" viewBox="0 0 48 48" width="48" xmlns="http://www.w3.org/2000/svg"><g fill="#eeb733"><path d="m24.7334 3.53042s-.6886-1.19344-1.3772 0l-5.4643 9.46438s-.6886 1.1934 0 2.3868l6.1626 10.6752 2.4352 4.2206s.6886 1.1934 2.0677 1.1934h10.9286s1.3772 0 .6886-1.1934z"/><path d="m16.9828 16.8574s-.6886-1.1934-1.3772 0l-15.433451 26.7296s-.688597 1.1934.688597 1.1934h8.212874 2.71568s1.3772 0 2.0658-1.1934l6.1529-10.6578 2.4372-4.2186s.6886-1.1934 0-2.3869z"/><path d="m42.3429 34.1226s-.6886-1.1934-2.0677-1.1934h-12.3058-4.8724s-1.3791 0-2.0677 1.1934l-5.4643 9.4644s-.6886 1.1934.6886 1.1934h30.865s1.3772 0 .6886-1.1934z"/></g></svg>