<svg xmlns="http://www.w3.org/2000/svg" width="48" height="48" fill="none"><defs/><linearGradient id="a" x1="24" x2="24" y1="0" y2="70.18" gradientUnits="userSpaceOnUse"><stop offset="0" stop-color="#08021e"/><stop offset="1" stop-color="#1f0777"/></linearGradient><path fill="url(#a)" d="M24 48a24 24 0 100-48 24 24 0 000 48z"/><path fill="#00d1ff" d="M16.1 18.03a1.01 1.01 0 00-.8-.36H8.9a.19.19 0 01-.15-.06.16.16 0 01-.05-.12v-4.32c0-.04.02-.08.05-.12A.19.19 0 018.9 13h6.78c1.7 0 3.18.7 4.42 2.1l1.64 2-3.2 3.91zm11.83-2.96A5.77 5.77 0 0132.38 13h6.75c.06 0 .1.01.13.04s.04.08.04.13v4.32c0 .05-.01.09-.04.12-.03.04-.07.06-.13.06h-6.41c-.31 0-.58.12-.8.36l-4.71 5.75 4.74 5.79c.21.23.47.34.77.34h6.4c.07 0 .1.02.14.06.03.03.04.08.04.14v4.32c0 .04-.01.08-.04.12-.03.03-.07.05-.13.05h-6.75c-1.73 0-3.2-.7-4.43-2.1l-3.93-4.79-3.93 4.8a5.75 5.75 0 01-4.45 2.09H8.9c-.05 0-.1-.02-.13-.05a.22.22 0 01-.04-.14v-4.32c0-.05.02-.09.04-.12.03-.04.08-.06.13-.06h6.41c.3 0 .56-.12.8-.36l4.63-5.66z"/></svg>