<svg xmlns="http://www.w3.org/2000/svg" width="48" height="48" fill="none" viewBox="0 0 48 48"><defs/><path fill="#2775ca" d="M24 48a24 24 0 100-48 24 24 0 000 48z"/><g fill="#fff"><path d="M19.5 40.69c0 .56-.45.88-.97.71a18 18 0 010-34.31c.54-.17.97.15.97.71v1.4c0 .38-.28.81-.64.94a15 15 0 000 28.18c.36.14.64.57.64.94z"/><path d="M25.5 35.5c0 .4-.34.74-.75.74h-1.5a.75.75 0 01-.75-.75v-2.36c-3.28-.45-4.88-2.27-5.3-4.78a.7.7 0 01.69-.8h1.7c.36 0 .66.26.73.6.32 1.48 1.19 2.62 3.81 2.62 1.93 0 3.32-1.09 3.32-2.7s-.8-2.23-3.66-2.7c-4.2-.56-6.18-1.84-6.18-5.12 0-2.53 1.93-4.52 4.89-4.93v-2.33c0-.4.34-.75.75-.75h1.5c.41 0 .75.34.75.75v2.39c2.42.43 3.96 1.8 4.46 4.08.1.43-.24.83-.7.83H27.7a.74.74 0 01-.7-.55c-.44-1.44-1.47-2.08-3.27-2.08-1.99 0-3.02.96-3.02 2.3 0 1.43.58 2.15 3.64 2.58 4.12.56 6.26 1.74 6.26 5.25 0 2.66-1.99 4.82-5.08 5.3v2.4z"/><path d="M29.48 41.4c-.55.17-.98-.15-.98-.71v-1.4c0-.42.24-.82.64-.95a15 15 0 000-28.16 1.07 1.07 0 01-.64-.94v-1.4c0-.57.45-.88.97-.72a18 18 0 010 34.28z"/></g></svg>