<svg width="48" height="48" fill="none" xmlns="http://www.w3.org/2000/svg">
  <path fill-rule="evenodd" clip-rule="evenodd" d="M8.985 3.135h30.03L48 21.93 24 44.865 0 21.93 8.985 3.135zM27.42 14.31v3.675c6.825.315 11.97 1.635 11.97 3.27s-5.13 2.985-11.97 3.3V36.36h-6.09V24.57c-6.84-.315-11.985-1.665-11.985-3.3 0-1.635 5.145-2.985 11.985-3.3v-3.675H12.9v-5.61h22.935v5.625H27.42zm-3.015 9.33c1.965 0 2.85-.045 3.015-.06 6.03-.285 10.56-1.32 10.56-2.58s-4.515-2.31-10.545-2.58v4.11c-.18.015-1.125.09-3 .09-1.56 0-2.7-.06-3.09-.09v-4.11c-6.045.27-10.56 1.32-10.56 2.58s4.515 2.31 10.56 2.58l.051.002c.429.017 1.498.058 3.009.058z" fill="#50AF95"/>
</svg>
