<svg xmlns="http://www.w3.org/2000/svg" width="48" height="48" fill="none" viewBox="0 0 48 48">
  <g fill="#000" clip-path="url(#clip0)">
    <path d="M41.225 9.315l-5.78 2.944L7.537 26.475a16.753 16.753 0 01-.142-2.171A16.626 16.626 0 0132.127 9.81l3.308-1.685.494-.252A20.308 20.308 0 003.75 25.855a3.694 3.694 0 01-2.007 3.57L0 30.316v4.15l5.136-2.619 1.663-.849 1.639-.834L37.86 15.17l3.306-1.683L48 10.005V5.858l-6.775 3.457zM48 14.156L10.11 33.45l-3.307 1.687L0 38.603v4.145l6.756-3.442 5.78-2.945 27.938-14.236a16.627 16.627 0 01-24.615 16.677l-.204.108-3.586 1.827a20.308 20.308 0 0032.18-17.987 3.696 3.696 0 012.005-3.57L48 18.29v-4.134z"/>
  </g>
  <defs>
    <clipPath id="clip0">
      <path fill="#fff" d="M0 0h48v40.616H0z" transform="translate(0 4)"/>
    </clipPath>
  </defs>
</svg>
