<svg xmlns="http://www.w3.org/2000/svg" width="48" height="48" fill="none" viewBox="0 0 48 48"><defs/><linearGradient id="a" x1="48" x2="0" y1="25.3" y2="25.4" gradientUnits="userSpaceOnUse"><stop offset="0" stop-color="#075eb6"/><stop offset="1" stop-color="#0377fc"/></linearGradient><path fill="url(#a)" d="M24 48a24 24 0 100-48 24 24 0 000 48z"/><g fill="#fff"><path d="M26 24.4l1.8 1.1 2 1.9c.8 1 1.3 2.2 1.4 3.5.4 2.2-.2 4-1.6 5.8-1.9 2.5-6 3.5-8.5 2.4a7.9 7.9 0 01-3.4-2.6c-1.3-1.9-2-3.9-1.1-6.2l.7-1.8-2.8.6-.4-1.8a.5.5 0 01.2-.4l6.2-1.2c.4-.1.5 0 .5.3a227 227 0 00.9 6.1c0 .4 0 .6-.4.6l-1.7.2-.5-3.5c-.8 1.4-1.3 2.7-.8 4 .5 1.2 1 2.3 2 3a5.3 5.3 0 005.4.6c1-.4 1.9-1.2 2.5-2.1a5.3 5.3 0 00.6-4.3 5 5 0 00-2.3-3.2c-.4-.2-.7-.5-.6-1v-2zM30.9 19l2.7-1 .5 1.6a.6.6 0 01-.3.5l-5.5 2c-.7.3-.7.3-1-.5-.3-1.6-.8-3-1.2-4.6l-.4-1.3a15 15 0 011.8-.6l.5.7.4 1.6.3.9c.6-1.1.6-2.2.5-3.3a5.2 5.2 0 00-2.9-3.9c-.8-.4-1.7-.6-2.6-.6-2 0-3.6 1-4.6 2.7a5.2 5.2 0 00.5 6.1c.6.6 1.2 1.2 2 1.7.3.2.4.5.4 1v2l-1.5-1-2.4-2.1c-1-1-1.6-2.4-1.8-3.8-.4-2.5.4-4.8 2.2-6.5 2-2 4.4-2.5 7-2 2 .5 3.6 1.6 4.7 3.3a7.4 7.4 0 011 5.7l-.3 1.4z"/><path d="M25 14.1v19.7h-1.8c-.4 0-.3-.4-.3-.6v-9.4-9c0-.5.2-.7.7-.7h1.5z"/></g></svg>