<svg xmlns="http://www.w3.org/2000/svg" width="48" height="48" fill="none" viewBox="0 0 48 48">
  <g clip-path="url(#clip0)">
    <path fill="#231815" d="M37.15 32.336c1.71 2.299 3.474 4.65 5.238 7.002-3.528 4.17-7.911 6.842-13.203 7.965-5.88 1.229-11.439.32-16.838-2.673 4.811-3.581 9.515-7.11 14.272-10.637 1.07 1.016 2.085 2.031 3.1 2.993 1.123 1.07.695 1.123 2.139.321a14.822 14.822 0 004.917-4.543c.054-.107.16-.214.214-.321-.053 0 0 0 .16-.107zM16.142 37.04c-1.337 1.015-2.566 1.924-3.796 2.886-.908.695-1.817 1.337-2.726 2.031-.374.321-.641.321-1.069-.053-4.062-3.635-6.628-8.125-7.59-13.47C0 23.035.855 17.904 3.421 13.04c.053-.107.16-.267.214-.374 0-.054.053-.054.16-.107 3.528 4.65 7.11 9.3 10.637 13.95-.107.161-.16.268-.267.375-1.07 1.122-2.138 2.245-3.26 3.314-.321.32-.375.588-.161.962 1.122 2.138 2.672 3.902 4.597 5.345.267.16.48.321.802.535zM36.08 3.846a295.25 295.25 0 01-5.131 3.635c-2.94 2.084-5.88 4.223-8.766 6.307-.375.267-.642.32-.962-.053-.963-1.016-1.978-1.925-2.94-2.94-.268-.267-.535-.32-.909-.16-2.299 1.175-4.116 2.832-5.613 4.917a2.962 2.962 0 00-.32.428c-.855-1.123-1.657-2.138-2.459-3.207-.855-1.123-1.657-2.245-2.459-3.314-.267-.375-.32-.642.054-1.016C10.69 3.9 15.768 1.227 21.862.586c4.81-.535 9.408.427 13.684 2.726.16.106.32.16.48.267 0 .16 0 .214.054.267zm8.713 32.071a449.744 449.744 0 01-3.154-4.116c-2.352-3.1-4.704-6.253-7.109-9.354-.32-.427-.32-.694.054-1.069 1.015-1.015 1.977-2.03 2.993-3.046.267-.268.374-.535.16-.91a15.845 15.845 0 00-4.864-5.612c-.16-.107-.32-.267-.534-.374.16-.16.32-.267.427-.374 2.031-1.55 4.063-3.047 6.094-4.597.32-.267.588-.374.962 0 5.078 4.597 7.804 10.317 8.071 17.212.107 4.009-.802 7.804-2.619 11.385a4.05 4.05 0 00-.481.855z"/>
  </g>
  <defs>
    <clipPath id="clip0">
      <path fill="#fff" d="M0 0h48v48H0z"/>
    </clipPath>
  </defs>
</svg>
